<svg xmlns="http://www.w3.org/2000/svg" fill="none" viewBox="0 0 600 600">
  <rect width="600" height="600" fill="#fff" rx="300"/>
  <mask id="a" width="500" height="500" x="50" y="50" maskUnits="userSpaceOnUse" style="mask-type:alpha">
    <circle cx="300" cy="300" r="250" fill="#FDE68A"/>
  </mask>
  <g mask="url(#a)">
    <rect width="20" height="288" x="219" fill="#000"/>
    <rect width="20" height="188.9" x="275.9" y="401.2" fill="#000" transform="rotate(-30 275.9 401.2)"/>
    <rect width="20" height="600" x="9.8" y="94.9" fill="#000" transform="rotate(-45 9.8 95)"/>
    <rect width="20" height="600" x="-35.8" y="158.7" fill="#FDE68A" transform="rotate(-60 -35.8 158.7)"/>
    <rect width="20" height="600" x="-63.4" y="232" fill="#FCD34D" transform="rotate(-75 -63.4 232)"/>
    <rect width="20" height="600" x="-71" y="310" fill="#FBBF24" transform="rotate(-90 -71 310)"/>
    <rect width="20" height="600" x="-58.2" y="387.3" fill="#F59E0B" transform="rotate(-105 -58.2 387.3)"/>
    <rect width="20" height="600" x="-25.8" y="458.7" fill="#000" transform="rotate(-120 -25.8 458.7)"/>
    <rect width="20" height="600" x="23.9" y="519.2" fill="#000" transform="rotate(-135 24 519.2)"/>
    <rect width="20" height="273.1" x="251.1" y="281.7" fill="#000" transform="rotate(-150 251.1 281.7)"/>
    <rect width="20" height="331.5" x="230.5" y="333" fill="#000" transform="rotate(-165 230.5 333)"/>
    <circle cx="300" cy="300" r="120.6" fill="#fff"/>
    <rect width="147" height="500" x="50" y="72" fill="#000"/>
  </g>
</svg>
