<svg width="716" height="240" viewBox="0 0 716 240" fill="none" xmlns="http://www.w3.org/2000/svg">
<path d="M391.541 101.52C391.541 106.747 390.281 111.647 387.761 116.22C385.335 120.793 381.461 124.48 376.141 127.28C370.915 130.08 364.288 131.48 356.261 131.48H339.881V169H320.281V71.28H356.261C363.821 71.28 370.261 72.5867 375.581 75.2C380.901 77.8133 384.868 81.4067 387.481 85.98C390.188 90.5533 391.541 95.7333 391.541 101.52ZM355.421 115.66C360.835 115.66 364.848 114.447 367.461 112.02C370.075 109.5 371.381 106 371.381 101.52C371.381 92 366.061 87.24 355.421 87.24H339.881V115.66H355.421ZM446.337 90.32C452.217 90.32 457.444 91.6267 462.017 94.24C466.59 96.76 470.137 100.54 472.657 105.58C475.27 110.527 476.577 116.5 476.577 123.5V169H456.977V126.16C456.977 120 455.437 115.287 452.357 112.02C449.277 108.66 445.077 106.98 439.757 106.98C434.344 106.98 430.05 108.66 426.877 112.02C423.797 115.287 422.257 120 422.257 126.16V169H402.657V65.4H422.257V101.1C424.777 97.74 428.137 95.1267 432.337 93.26C436.537 91.3 441.204 90.32 446.337 90.32ZM487.376 129.94C487.376 122.1 488.916 115.147 491.996 109.08C495.169 103.013 499.416 98.3467 504.736 95.08C510.149 91.8133 516.169 90.18 522.796 90.18C528.582 90.18 533.622 91.3467 537.916 93.68C542.302 96.0133 545.802 98.9533 548.416 102.5V91.44H568.156V169H548.416V157.66C545.896 161.3 542.396 164.333 537.916 166.76C533.529 169.093 528.442 170.26 522.656 170.26C516.122 170.26 510.149 168.58 504.736 165.22C499.416 161.86 495.169 157.147 491.996 151.08C488.916 144.92 487.376 137.873 487.376 129.94ZM548.416 130.22C548.416 125.46 547.482 121.4 545.616 118.04C543.749 114.587 541.229 111.973 538.056 110.2C534.882 108.333 531.476 107.4 527.836 107.4C524.196 107.4 520.836 108.287 517.756 110.06C514.676 111.833 512.156 114.447 510.196 117.9C508.329 121.26 507.396 125.273 507.396 129.94C507.396 134.607 508.329 138.713 510.196 142.26C512.156 145.713 514.676 148.373 517.756 150.24C520.929 152.107 524.289 153.04 527.836 153.04C531.476 153.04 534.882 152.153 538.056 150.38C541.229 148.513 543.749 145.9 545.616 142.54C547.482 139.087 548.416 134.98 548.416 130.22ZM604.098 103.48C606.618 99.3733 609.885 96.1533 613.898 93.82C618.005 91.4867 622.672 90.32 627.898 90.32V110.9H622.718C616.558 110.9 611.892 112.347 608.718 115.24C605.638 118.133 604.098 123.173 604.098 130.36V169H584.498V91.44H604.098V103.48ZM710.4 128.54C710.4 131.34 710.213 133.86 709.84 136.1H653.14C653.607 141.7 655.567 146.087 659.02 149.26C662.473 152.433 666.72 154.02 671.76 154.02C679.04 154.02 684.22 150.893 687.3 144.64H708.44C706.2 152.107 701.907 158.267 695.56 163.12C689.213 167.88 681.42 170.26 672.18 170.26C664.713 170.26 657.993 168.627 652.02 165.36C646.14 162 641.52 157.287 638.16 151.22C634.893 145.153 633.26 138.153 633.26 130.22C633.26 122.193 634.893 115.147 638.16 109.08C641.427 103.013 646 98.3467 651.88 95.08C657.76 91.8133 664.527 90.18 672.18 90.18C679.553 90.18 686.133 91.7667 691.92 94.94C697.8 98.1133 702.327 102.64 705.5 108.52C708.767 114.307 710.4 120.98 710.4 128.54ZM690.1 122.94C690.007 117.9 688.187 113.887 684.64 110.9C681.093 107.82 676.753 106.28 671.62 106.28C666.767 106.28 662.66 107.773 659.3 110.76C656.033 113.653 654.027 117.713 653.28 122.94H690.1Z" fill="white"/>
<rect width="239.346" height="240" rx="119.673" fill="#090D0D"/>
<mask id="mask0_403_1546" style="mask-type:alpha" maskUnits="userSpaceOnUse" x="31" y="29" width="181" height="181">
<path d="M211.507 119.5C211.507 169.482 171.099 210 121.253 210C71.4078 210 31 169.482 31 119.5C31 69.5182 71.4078 29 121.253 29C171.099 29 211.507 69.5182 211.507 119.5ZM76.1267 119.5C76.1267 144.491 96.3306 164.75 121.253 164.75C146.176 164.75 166.38 144.491 166.38 119.5C166.38 94.5091 146.176 74.25 121.253 74.25C96.3306 74.25 76.1267 94.5091 76.1267 119.5Z" fill="black"/>
<path d="M74.3217 88.7152C74.3217 85.7244 76.7461 83.3 79.7369 83.3V83.3C82.7276 83.3 85.1521 85.7244 85.1521 88.7152V150.285C85.1521 153.276 82.7276 155.7 79.7369 155.7V155.7C76.7461 155.7 74.3217 153.276 74.3217 150.285V88.7152Z" fill="black"/>
</mask>
<g mask="url(#mask0_403_1546)">
<rect x="92.0112" y="31.172" width="7.22027" height="56.11" rx="3.61014" fill="white"/>
<rect width="7.22521" height="54.2631" rx="3.61261" transform="matrix(0.865434 -0.501024 0.498977 0.866615 116.676 163.307)" fill="white"/>
<rect width="7.23014" height="54.2261" rx="3.61507" transform="matrix(0.706141 -0.708071 0.706141 0.708071 131.404 160.499)" fill="white"/>
<rect width="7.23508" height="54.1891" rx="3.61754" transform="matrix(0.498977 -0.866615 0.865434 0.501024 146.576 153.179)" fill="#FDE68A"/>
<rect width="7.23868" height="54.162" rx="3.61934" transform="matrix(0.258161 -0.966102 0.965749 0.259479 155.643 139.374)" fill="#FCD34D"/>
<rect x="159.16" y="123.12" width="7.24" height="54.1521" rx="3.62" transform="rotate(-90 159.16 123.12)" fill="#FBBF24"/>
<rect width="7.23868" height="54.162" rx="3.61934" transform="matrix(-0.258161 -0.966102 0.965749 -0.259479 159.92 105.972)" fill="#F59E0B"/>
<rect width="7.23508" height="54.1891" rx="3.61754" transform="matrix(-0.498977 -0.866615 0.865434 -0.501024 149.762 92.3367)" fill="white"/>
<rect width="7.23014" height="54.2261" rx="3.61507" transform="matrix(-0.706141 -0.708071 0.706141 -0.708071 136.528 83.6021)" fill="white"/>
<rect width="7.22521" height="54.2631" rx="3.61261" transform="matrix(-0.865434 -0.501024 0.498977 -0.866615 122.557 79.9589)" fill="white"/>
<rect width="7.2216" height="56.0998" rx="3.6108" transform="matrix(-0.965749 -0.259479 0.258161 -0.966102 109.171 82.7812)" fill="white"/>
<path d="M31 29H85.1521V210H31V29Z" fill="white"/>
</g>
</svg>
