<svg width="716" height="241" viewBox="0 0 716 241" fill="none" xmlns="http://www.w3.org/2000/svg">
<path d="M392.238 101.585C392.238 106.812 390.978 111.712 388.458 116.285C386.031 120.859 382.158 124.545 376.838 127.345C371.611 130.145 364.984 131.545 356.958 131.545H340.578V169.065H320.978V71.3454H356.958C364.518 71.3454 370.958 72.6521 376.278 75.2654C381.598 77.8788 385.564 81.4721 388.178 86.0454C390.884 90.6188 392.238 95.7988 392.238 101.585ZM356.118 115.725C361.531 115.725 365.544 114.512 368.158 112.085C370.771 109.565 372.078 106.065 372.078 101.585C372.078 92.0654 366.758 87.3054 356.118 87.3054H340.578V115.725H356.118ZM447.034 90.3854C452.914 90.3854 458.14 91.6921 462.714 94.3054C467.287 96.8254 470.834 100.605 473.354 105.645C475.967 110.592 477.274 116.565 477.274 123.565V169.065H457.674V126.225C457.674 120.065 456.134 115.352 453.054 112.085C449.974 108.725 445.774 107.045 440.454 107.045C435.04 107.045 430.747 108.725 427.574 112.085C424.494 115.352 422.954 120.065 422.954 126.225V169.065H403.354V65.4654H422.954V101.165C425.474 97.8054 428.834 95.1921 433.034 93.3254C437.234 91.3654 441.9 90.3854 447.034 90.3854ZM488.072 130.005C488.072 122.165 489.612 115.212 492.692 109.145C495.865 103.079 500.112 98.4121 505.432 95.1454C510.845 91.8788 516.865 90.2454 523.492 90.2454C529.279 90.2454 534.319 91.4121 538.612 93.7454C542.999 96.0788 546.499 99.0188 549.112 102.565V91.5054H568.852V169.065H549.112V157.725C546.592 161.365 543.092 164.399 538.612 166.825C534.225 169.159 529.139 170.325 523.352 170.325C516.819 170.325 510.845 168.645 505.432 165.285C500.112 161.925 495.865 157.212 492.692 151.145C489.612 144.985 488.072 137.939 488.072 130.005ZM549.112 130.285C549.112 125.525 548.179 121.465 546.312 118.105C544.446 114.652 541.925 112.039 538.752 110.265C535.579 108.399 532.172 107.465 528.532 107.465C524.892 107.465 521.532 108.352 518.452 110.125C515.372 111.899 512.852 114.512 510.892 117.965C509.025 121.325 508.092 125.339 508.092 130.005C508.092 134.672 509.025 138.779 510.892 142.325C512.852 145.779 515.372 148.439 518.452 150.305C521.625 152.172 524.985 153.105 528.532 153.105C532.172 153.105 535.579 152.219 538.752 150.445C541.925 148.579 544.446 145.965 546.312 142.605C548.179 139.152 549.112 135.045 549.112 130.285ZM604.795 103.545C607.315 99.4388 610.582 96.2188 614.595 93.8854C618.702 91.5521 623.368 90.3854 628.595 90.3854V110.965H623.415C617.255 110.965 612.588 112.412 609.415 115.305C606.335 118.199 604.795 123.239 604.795 130.425V169.065H585.195V91.5054H604.795V103.545ZM711.097 128.605C711.097 131.405 710.91 133.925 710.537 136.165H653.837C654.303 141.765 656.263 146.152 659.717 149.325C663.17 152.499 667.417 154.085 672.457 154.085C679.737 154.085 684.917 150.959 687.997 144.705H709.137C706.897 152.172 702.603 158.332 696.257 163.185C689.91 167.945 682.117 170.325 672.877 170.325C665.41 170.325 658.69 168.692 652.717 165.425C646.837 162.065 642.217 157.352 638.857 151.285C635.59 145.219 633.957 138.219 633.957 130.285C633.957 122.259 635.59 115.212 638.857 109.145C642.123 103.079 646.697 98.4121 652.577 95.1454C658.457 91.8788 665.223 90.2454 672.877 90.2454C680.25 90.2454 686.83 91.8321 692.617 95.0054C698.497 98.1788 703.023 102.705 706.197 108.585C709.463 114.372 711.097 121.045 711.097 128.605ZM690.797 123.005C690.703 117.965 688.883 113.952 685.337 110.965C681.79 107.885 677.45 106.345 672.317 106.345C667.463 106.345 663.357 107.839 659.997 110.825C656.73 113.719 654.723 117.779 653.977 123.005H690.797Z" fill="black"/>
<rect x="0.369873" y="0.0655518" width="240" height="240" rx="120" fill="white"/>
<path d="M91.1255 32.2681L100.51 29.7225V82.1555L91.1255 88.5429V32.2681Z" fill="black"/>
<path d="M138.168 161.786L146.33 157.074L167.532 202.641L159.227 206.926L138.168 161.786Z" fill="black"/>
<path d="M125.225 165.248L134.44 163.222L141.034 213.059L131.843 214.642L125.225 165.248Z" fill="black"/>
<path d="M150.081 153.997L156.309 146.969L191.757 182.425L185.311 189.245L150.081 153.997Z" fill="black"/>
<path d="M158.749 143.141L162.502 134.491L206.136 159.696L201.885 168.073L158.749 143.141Z" fill="#FDE68A"/>
<path d="M163.433 130.904L164.457 121.445L213.354 134.544L211.584 143.774L163.433 130.904Z" fill="#FCD34D"/>
<path d="M164.315 117.704L162.469 108.319H213.341L214.181 117.704H164.315Z" fill="#FBBF24"/>
<path d="M161.04 104.412L156.327 95.9474L205.891 82.6696L209.352 91.456L161.04 104.412Z" fill="#F59E0B"/>
<path d="M153.274 92.132L145.939 85.5607L190.945 59.5528L196.841 66.9915L153.274 92.132Z" fill="black"/>
<path d="M142.145 83.1538L132.86 79.1913L170.177 41.8812L177.982 47.3268L142.145 83.1538Z" fill="black"/>
<path d="M128.889 78.2524L118.492 77.4568L145.374 30.9676L154.44 33.9621L128.889 78.2524Z" fill="black"/>
<path d="M114.778 77.7947L104.336 80.4535L118.495 27.6343L128.132 27.9187L114.778 77.7947Z" fill="black"/>
<path d="M81.7408 207.046V35.8694C81.7408 35.8694 26.5589 59.7065 26.5588 121.082C26.5588 182.458 81.7408 207.046 81.7408 207.046Z" fill="black"/>
</svg>
